<?xml version="1.0" encoding="iso-8859-1"?>
<!-- Generator: Adobe Illustrator 19.0.0, SVG Export Plug-In . SVG Version: 6.00 Build 0)  -->
<svg version="1.1" id="Capa_1" xmlns="http://www.w3.org/2000/svg" xmlns:xlink="http://www.w3.org/1999/xlink" x="0px" y="0px"
	 viewBox="0 0 512 512" style="enable-background:new 0 0 512 512;" xml:space="preserve">
<g>
	<g>
		<g>
			<circle style="fill:#B4B4B3;" cx="225.103" cy="317.793" r="194.207"/>
			<circle style="fill:#B4B4B3;" cx="295.724" cy="220.69" r="35.31"/>
			<circle style="fill:#B4B4B3;" cx="353.103" cy="286.897" r="22.069"/>
		</g>
		<path style="fill:#3A3E48;" d="M260.414,126.852V97.103c-0.014-4.869-3.958-8.813-8.828-8.828h-52.966
			c-4.869,0.014-8.813,3.958-8.828,8.828v29.749"/>
	</g>
	<path id="SVGCleanerId_0" style="fill:#F4CD1E;" d="M481.103,0c0,0-71.433,15.806-92.089,33.929
		c-9.527,8.283-13.894,21.031-11.446,33.416s11.334,22.514,23.296,26.551c11.962,4.037,25.169,1.366,34.621-7.003
		C456.141,68.77,481.103,0,481.103,0z"/>
	<path id="SVGCleanerId_1" style="fill:#928170;" d="M225.103,97.103c-2.341,0.001-4.587-0.929-6.243-2.585
		c-1.656-1.656-2.585-3.901-2.585-6.243v-30.19c-0.258-16.139,6.948-31.493,19.526-41.608c12.905-9.716,39.767-19.711,75.457,21.914
		c28.509,33.293,53.396,35.897,69.241,32.194c4.749-1.105,9.495,1.85,10.599,6.599c1.105,4.749-1.85,9.495-6.599,10.599
		c-20.612,4.785-52.379,2.112-86.655-37.906c-20.043-23.384-37.336-29.888-51.362-19.341c-8.197,6.764-12.826,16.924-12.552,27.548
		v30.19c0.001,2.341-0.929,4.587-2.585,6.243C229.691,96.174,227.445,97.104,225.103,97.103L225.103,97.103z"/>
	<g>
		<path style="fill:#3A3E48;" d="M260.414,128V97.366c0.057-4.942-3.886-9.002-8.828-9.09h-52.966
			c-4.941,0.088-8.884,4.149-8.828,9.09V128"/>
		<circle style="fill:#394F63;" cx="225.103" cy="317.793" r="194.207"/>
		<circle style="fill:#FFFFFF;" cx="295.724" cy="220.69" r="35.31"/>
		<circle style="fill:#B4B4B3;" cx="353.103" cy="286.897" r="22.069"/>
	</g>
	<g>
		<path id="SVGCleanerId_0_1_" style="fill:#F4CD1E;" d="M481.103,0c0,0-71.433,15.806-92.089,33.929
			c-9.527,8.283-13.894,21.031-11.446,33.416s11.334,22.514,23.296,26.551c11.962,4.037,25.169,1.366,34.621-7.003
			C456.141,68.77,481.103,0,481.103,0z"/>
	</g>
	<g>
		<path id="SVGCleanerId_1_1_" style="fill:#928170;" d="M225.103,97.103c-2.341,0.001-4.587-0.929-6.243-2.585
			c-1.656-1.656-2.585-3.901-2.585-6.243v-30.19c-0.258-16.139,6.948-31.493,19.526-41.608
			c12.905-9.716,39.767-19.711,75.457,21.914c28.509,33.293,53.396,35.897,69.241,32.194c4.749-1.105,9.495,1.85,10.599,6.599
			c1.105,4.749-1.85,9.495-6.599,10.599c-20.612,4.785-52.379,2.112-86.655-37.906c-20.043-23.384-37.336-29.888-51.362-19.341
			c-8.197,6.764-12.826,16.924-12.552,27.548v30.19c0.001,2.341-0.929,4.587-2.585,6.243
			C229.691,96.174,227.445,97.104,225.103,97.103L225.103,97.103z"/>
	</g>
</g>
<g>
</g>
<g>
</g>
<g>
</g>
<g>
</g>
<g>
</g>
<g>
</g>
<g>
</g>
<g>
</g>
<g>
</g>
<g>
</g>
<g>
</g>
<g>
</g>
<g>
</g>
<g>
</g>
<g>
</g>
</svg>
