<?xml version="1.0" encoding="iso-8859-1"?>
<!-- Generator: Adobe Illustrator 19.0.0, SVG Export Plug-In . SVG Version: 6.00 Build 0)  -->
<svg version="1.1" id="Capa_1" xmlns="http://www.w3.org/2000/svg" xmlns:xlink="http://www.w3.org/1999/xlink" x="0px" y="0px"
	 viewBox="0 0 511.999 511.999" style="enable-background:new 0 0 511.999 511.999;" xml:space="preserve">
<g>
	<g>
		<rect x="229.517" y="273.655" style="fill:#F6AB27;" width="52.966" height="105.931"/>
		<path style="fill:#F4CD1E;" d="M132.413,0h247.172c4.875,0,8.828,3.952,8.828,8.828v176.551
			c0,58.504-47.427,105.931-105.931,105.931h-52.966c-58.504,0-105.931-47.427-105.931-105.931V8.828
			C123.586,3.952,127.538,0,132.413,0z"/>
		<rect x="203.034" y="370.758" style="fill:#EC9130;" width="105.931" height="44.138"/>
		<path style="fill:#DC6C33;" d="M185.379,406.068H326.62c19.501,0,35.31,15.809,35.31,35.31v8.828H150.069v-8.828
			C150.069,421.877,165.878,406.068,185.379,406.068z"/>
		<path style="fill:#936642;" d="M114.758,441.379h282.483c4.875,0,8.828,3.952,8.828,8.828v52.966c0,4.875-3.952,8.828-8.828,8.828
			H114.758c-4.875,0-8.828-3.952-8.828-8.828v-52.966C105.931,445.331,109.883,441.379,114.758,441.379z"/>
	</g>
	<path style="fill:none;stroke:#000000;stroke-width:2;stroke-linecap:round;stroke-linejoin:round;" d="M150.069,476.689h211.862"
		/>
	<g>
		<g>
			<path style="fill:#F6AB27;" d="M123.586,211.862c-22.615-0.207-43.844-10.934-57.427-29.017
				c-7.27-9.227-12.533-19.871-15.453-31.25L23.875,50.961c-2.121-7.949-0.426-16.433,4.586-22.958s12.772-10.349,21-10.349h74.125
				c4.875,0,8.828,3.952,8.828,8.828s-3.952,8.828-8.828,8.828H49.461c-2.742-0.001-5.329,1.273-6.999,3.448
				c-1.67,2.175-2.235,5.002-1.526,7.652l26.832,100.634c2.291,9.013,6.438,17.449,12.177,24.767
				c10.16,13.979,26.362,22.294,43.642,22.397c4.875,0,8.828,3.952,8.828,8.828S128.461,211.862,123.586,211.862z"/>
			<path style="fill:#F6AB27;" d="M388.413,211.862c-4.875,0-8.828-3.952-8.828-8.828s3.952-8.828,8.828-8.828
				c17.281-0.103,33.483-8.417,43.642-22.397c5.738-7.318,9.886-15.754,12.177-24.767l26.832-100.634
				c0.708-2.649,0.144-5.477-1.526-7.651c-1.67-2.175-4.257-3.449-6.999-3.448h-74.125c-4.875,0-8.828-3.952-8.828-8.828
				s3.952-8.828,8.828-8.828h74.125c8.228,0,15.988,3.824,21,10.349c5.012,6.525,6.707,15.008,4.586,22.958l-26.832,100.634
				c-2.919,11.379-8.183,22.022-15.453,31.25C432.258,200.928,411.029,211.654,388.413,211.862z"/>
		</g>
		<path style="fill:#FFFFFF;" d="M361.931,485.517H150.069c-4.875,0-8.828-3.952-8.828-8.828s3.952-8.828,8.828-8.828h211.862
			c4.875,0,8.828,3.952,8.828,8.828S366.806,485.517,361.931,485.517z"/>
	</g>
</g>
<g>
</g>
<g>
</g>
<g>
</g>
<g>
</g>
<g>
</g>
<g>
</g>
<g>
</g>
<g>
</g>
<g>
</g>
<g>
</g>
<g>
</g>
<g>
</g>
<g>
</g>
<g>
</g>
<g>
</g>
</svg>
