<?xml version="1.0" encoding="iso-8859-1"?>
<!-- Generator: Adobe Illustrator 19.0.0, SVG Export Plug-In . SVG Version: 6.00 Build 0)  -->
<svg version="1.1" id="Capa_1" xmlns="http://www.w3.org/2000/svg" xmlns:xlink="http://www.w3.org/1999/xlink" x="0px" y="0px"
	 viewBox="0 0 512 512" style="enable-background:new 0 0 512 512;" xml:space="preserve">
<g>
	<path id="SVGCleanerId_0" style="fill:#F6AB27;" d="M123.586,0h264.828c4.875,0,8.828,3.952,8.828,8.828v17.655
		c0,4.875-3.952,8.828-8.828,8.828H123.586c-4.875,0-8.828-3.952-8.828-8.828V8.828C114.759,3.952,118.711,0,123.586,0z"/>
	<path style="fill:#5496CE;" d="M301.652,310.48l67.592,67.592c6.622,6.622,10.342,15.603,10.342,24.968v73.65H132.414v-73.65
		c0-9.365,3.72-18.346,10.342-24.968l67.592-67.592c6.622-6.622,10.342-15.603,10.342-24.968v-59.024
		c0-9.365-3.72-18.346-10.342-24.968l-67.592-67.592c-6.622-6.622-10.342-15.603-10.342-24.968V35.31h247.172v73.65
		c0,9.365-3.72,18.346-10.342,24.968l-67.592,67.592c-6.622,6.622-10.342,15.603-10.342,24.968v59.024
		C291.31,294.877,295.031,303.858,301.652,310.48L301.652,310.48z"/>
	<path id="SVGCleanerId_1" style="fill:#F6AB27;" d="M123.586,476.69h264.828c4.875,0,8.828,3.952,8.828,8.828v17.655
		c0,4.875-3.952,8.828-8.828,8.828H123.586c-4.875,0-8.828-3.952-8.828-8.828v-17.655
		C114.759,480.642,118.711,476.69,123.586,476.69z"/>
	<path style="fill:none;stroke:#000000;stroke-width:2;stroke-linecap:round;stroke-linejoin:round;" d="M286.139,347.932
		c-7.993-7.993-18.835-12.484-30.139-12.484l0,0c-11.304,0-22.146,4.491-30.139,12.484l-47.794,47.794
		c-6.622,6.622-10.342,15.603-10.342,24.968v20.684h176.552v-20.684c0-9.365-3.72-18.346-10.342-24.968L286.139,347.932z"/>
	<path style="fill:#5496CE;" d="M301.652,310.48l67.592,67.592c6.622,6.622,10.342,15.603,10.342,24.968v82.477H132.414V403.04
		c0-9.365,3.72-18.346,10.342-24.968l67.592-67.592c6.622-6.622,10.342-15.603,10.342-24.968v-59.024
		c0-9.365-3.72-18.346-10.342-24.968l-67.592-67.592c-6.622-6.622-10.342-15.603-10.342-24.968V26.483h247.172v82.477
		c0,9.365-3.72,18.346-10.342,24.968l-67.592,67.592c-6.622,6.622-10.342,15.603-10.342,24.968v59.024
		C291.31,294.877,295.031,303.858,301.652,310.48L301.652,310.48z"/>
	<g>
		<path id="SVGCleanerId_1_1_" style="fill:#F6AB27;" d="M123.586,476.69h264.828c4.875,0,8.828,3.952,8.828,8.828v17.655
			c0,4.875-3.952,8.828-8.828,8.828H123.586c-4.875,0-8.828-3.952-8.828-8.828v-17.655
			C114.759,480.642,118.711,476.69,123.586,476.69z"/>
	</g>
	<path style="fill:#336A93;" d="M286.139,347.932c-7.993-7.993-18.835-12.484-30.139-12.484l0,0
		c-11.304,0-22.146,4.491-30.139,12.484l-47.794,47.794c-6.622,6.622-10.342,15.603-10.342,24.968v20.684h176.552v-20.684
		c0-9.365-3.72-18.346-10.342-24.968L286.139,347.932z"/>
	<g>
		<path id="SVGCleanerId_0_1_" style="fill:#F6AB27;" d="M123.586,0h264.828c4.875,0,8.828,3.952,8.828,8.828v17.655
			c0,4.875-3.952,8.828-8.828,8.828H123.586c-4.875,0-8.828-3.952-8.828-8.828V8.828C114.759,3.952,118.711,0,123.586,0z"/>
	</g>
</g>
<g>
</g>
<g>
</g>
<g>
</g>
<g>
</g>
<g>
</g>
<g>
</g>
<g>
</g>
<g>
</g>
<g>
</g>
<g>
</g>
<g>
</g>
<g>
</g>
<g>
</g>
<g>
</g>
<g>
</g>
</svg>
