<?xml version="1.0" encoding="iso-8859-1"?>
<!-- Generator: Adobe Illustrator 19.0.0, SVG Export Plug-In . SVG Version: 6.00 Build 0)  -->
<svg version="1.1" id="Capa_1" xmlns="http://www.w3.org/2000/svg" xmlns:xlink="http://www.w3.org/1999/xlink" x="0px" y="0px"
	 viewBox="0 0 512.002 512.002" style="enable-background:new 0 0 512.002 512.002;" xml:space="preserve">
<g>
	<path id="SVGCleanerId_0" style="fill:#D5BFA3;" d="M158.898,256.002h194.207v167.724c0,23.412-9.3,45.866-25.855,62.42
		c-16.555,16.555-39.008,25.855-62.42,25.855h-17.655c-48.753,0-88.276-39.522-88.276-88.276V256.002z"/>
	<path style="fill:#CD4F38;" d="M512.001,256.002c0.036,11.717-4.603,22.964-12.888,31.25c-8.285,8.285-19.533,12.924-31.25,12.888
		H44.139c-24.373-0.009-44.129-19.765-44.138-44.138c0.054-78.554,36.146-152.741,97.918-201.27S240.312-11.301,316.646,7.241
		c-18.662,25.142-21.784,58.58-8.097,86.742s41.907,46.368,73.207,47.228c31.3,0.861,60.478-15.767,75.691-43.135
		C492.897,143.073,512.119,198.719,512.001,256.002z"/>
	<g>
		
			<circle style="fill:none;stroke:#000000;stroke-width:2;stroke-linecap:round;stroke-linejoin:round;" cx="194.208" cy="141.244" r="61.793"/>
		
			<circle style="fill:none;stroke:#000000;stroke-width:2;stroke-linecap:round;stroke-linejoin:round;" cx="79.449" cy="229.52" r="35.31"/>
	</g>
	<g>
		<path id="SVGCleanerId_0_1_" style="fill:#D5BFA3;" d="M158.898,256.002h194.207v167.724c0,23.412-9.3,45.866-25.855,62.42
			c-16.555,16.555-39.008,25.855-62.42,25.855h-17.655c-48.753,0-88.276-39.522-88.276-88.276V256.002z"/>
	</g>
	<g>
		<path style="fill:#CD4F38;" d="M512.001,256.002c0.036,11.717-4.603,22.964-12.888,31.25c-8.285,8.285-19.533,12.924-31.25,12.888
			h-20.921c2.171-7.155,3.271-14.592,3.266-22.069c0-41.44-33.594-75.034-75.034-75.034s-75.034,33.594-75.034,75.034
			c-0.005,7.477,1.096,14.914,3.266,22.069H44.139c-24.373-0.009-44.129-19.765-44.138-44.138
			c0.054-78.554,36.146-152.741,97.918-201.27S240.312-11.301,316.646,7.241c-18.662,25.142-21.784,58.58-8.097,86.742
			s41.907,46.368,73.207,47.228c31.3,0.861,60.478-15.767,75.691-43.135C492.897,143.073,512.119,198.719,512.001,256.002z"/>
		<g>
			<circle style="fill:#EBECED;" cx="194.208" cy="141.244" r="61.793"/>
			<path style="fill:#EBECED;" d="M457.447,98.077c-15.225,27.343-44.395,43.949-75.679,43.081
				c-31.284-0.867-59.489-19.063-73.176-47.208c-13.686-28.145-10.582-61.566,8.054-86.709
				c45.599,11.067,87.262,34.495,120.408,67.708C444.34,82.214,451.152,89.939,457.447,98.077z"/>
			<path style="fill:#EBECED;" d="M450.208,278.071c0.005,7.477-1.096,14.914-3.266,22.069H303.405
				c-2.171-7.155-3.271-14.592-3.266-22.069c0-41.44,33.594-75.034,75.034-75.034S450.208,236.631,450.208,278.071L450.208,278.071z
				"/>
			<circle style="fill:#EBECED;" cx="79.449" cy="229.52" r="35.31"/>
		</g>
	</g>
</g>
<g>
</g>
<g>
</g>
<g>
</g>
<g>
</g>
<g>
</g>
<g>
</g>
<g>
</g>
<g>
</g>
<g>
</g>
<g>
</g>
<g>
</g>
<g>
</g>
<g>
</g>
<g>
</g>
<g>
</g>
</svg>
